<svg xmlns="http://www.w3.org/2000/svg" xmlns:xlink="http://www.w3.org/1999/xlink" xmlns:inkscape="http://www.inkscape.org/namespaces/inkscape" version="1.1" width="197.637" height="197.637" viewBox="0 0 197.637 197.637">
<defs>
<clipPath id="clip_1">
<path transform="matrix(1,0,0,-1,0,197.637)" d="M0 197.637H197.637V0H0Z"/>
</clipPath>
</defs>
<g clip-path="url(#clip_1)">
<path transform="matrix(1,0,0,-1,157.373,197.637)" d="M0 0H-117.109C-139.346 0-157.373 18.027-157.373 40.264V157.373C-157.373 179.61-139.346 197.637-117.109 197.637H0C22.237 197.637 40.264 179.61 40.264 157.373V40.264C40.264 18.027 22.237 0 0 0" fill="#f15a24"/>
<path transform="matrix(1,0,0,-1,139.9253,87.315097)" d="M0 0V-52.607H-31.822V-2.222H-82.213V29.601H-29.601C-13.253 29.601 0 16.348 0 0" fill="#ffffff"/>
</g>
</svg>
